<?xml version="1.0" encoding="UTF-8"?>
<svg xmlns="http://www.w3.org/2000/svg" xmlns:xlink="http://www.w3.org/1999/xlink" width="24px" height="24px" viewBox="0 0 24 23" version="1.1">
<g id="surface1">
<path style=" stroke:none;fill-rule:nonzero;fill:rgb(3.137255%,40%,100%);fill-opacity:1;" d="M 23.988281 11.496094 C 23.988281 5.144531 18.617188 0 11.992188 0 C 5.371094 0 0 5.144531 0 11.496094 C 0 16.886719 3.871094 21.40625 9.097656 22.648438 L 9.097656 15.007812 L 6.625 15.007812 L 6.625 11.496094 L 9.097656 11.496094 L 9.097656 9.980469 C 9.097656 6.070312 10.945312 4.253906 14.953125 4.253906 C 15.710938 4.253906 17.023438 4.398438 17.558594 4.539062 L 17.558594 7.726562 C 17.277344 7.695312 16.785156 7.683594 16.171875 7.683594 C 14.207031 7.683594 13.445312 8.394531 13.445312 10.253906 L 13.445312 11.496094 L 17.363281 11.496094 L 16.691406 15.007812 L 13.445312 15.007812 L 13.445312 22.90625 C 19.386719 22.21875 23.988281 17.371094 23.988281 11.496094 "/>
<path style=" stroke:none;fill-rule:nonzero;fill:rgb(100%,100%,100%);fill-opacity:1;" d="M 16.691406 15.007812 L 17.363281 11.496094 L 13.445312 11.496094 L 13.445312 10.253906 C 13.445312 8.394531 14.207031 7.683594 16.171875 7.683594 C 16.785156 7.683594 17.277344 7.695312 17.558594 7.726562 L 17.558594 4.539062 C 17.023438 4.398438 15.710938 4.253906 14.953125 4.253906 C 10.945312 4.253906 9.097656 6.070312 9.097656 9.980469 L 9.097656 11.496094 L 6.625 11.496094 L 6.625 15.007812 L 9.097656 15.007812 L 9.097656 22.648438 C 10.023438 22.871094 10.996094 22.988281 11.992188 22.988281 C 12.484375 22.988281 12.96875 22.960938 13.445312 22.90625 L 13.445312 15.007812 Z M 16.691406 15.007812 "/>
</g>
</svg>
