<?xml version="1.0" encoding="UTF-8"?>
<svg xmlns="http://www.w3.org/2000/svg" xmlns:xlink="http://www.w3.org/1999/xlink" width="24px" height="24px" viewBox="0 0 24 24" version="1.1">
<defs>
<radialGradient id="radial0" gradientUnits="userSpaceOnUse" cx="199.7884" cy="628.4379" fx="199.7884" fy="628.4379" r="52.3515" gradientTransform="matrix(-0.28192,0.079508,-0.0572825,-0.203109,115.547864,123.005986)">
<stop offset="0" style="stop-color:rgb(100%,0%,37.254902%);stop-opacity:1;"/>
<stop offset="1" style="stop-color:rgb(98.823529%,0.392157%,84.705882%);stop-opacity:1;"/>
</radialGradient>
<radialGradient id="radial1" gradientUnits="userSpaceOnUse" cx="158.429" cy="578.088" fx="158.429" fy="578.088" r="52.3515" gradientTransform="matrix(0,-0.365935,0.388249,0,-218.067532,83.823222)">
<stop offset="0" style="stop-color:rgb(100%,80%,0%);stop-opacity:1;"/>
<stop offset="0.1242" style="stop-color:rgb(100%,80%,0%);stop-opacity:1;"/>
<stop offset="0.5672" style="stop-color:rgb(99.607843%,29.019608%,1.960784%);stop-opacity:1;"/>
<stop offset="0.6942" style="stop-color:rgb(100%,5.882353%,24.705882%);stop-opacity:1;"/>
<stop offset="1" style="stop-color:rgb(99.607843%,2.352941%,34.117647%);stop-opacity:0;"/>
</radialGradient>
<radialGradient id="radial2" gradientUnits="userSpaceOnUse" cx="172.6149" cy="600.6924" fx="172.6149" fy="600.6924" r="65" gradientTransform="matrix(0.0611748,-0.105406,0.137227,0.0796431,-80.384321,-5.984804)">
<stop offset="0" style="stop-color:rgb(100%,80%,0%);stop-opacity:1;"/>
<stop offset="1" style="stop-color:rgb(100%,80%,0%);stop-opacity:0;"/>
</radialGradient>
<radialGradient id="radial3" gradientUnits="userSpaceOnUse" cx="144.012" cy="51.3367" fx="144.012" fy="51.3367" r="67.081" gradientTransform="matrix(-0.217601,0.0612728,-0.0208703,-0.074138,35.664854,-4.040745)">
<stop offset="0" style="stop-color:rgb(47.058824%,4.705882%,100%);stop-opacity:1;"/>
<stop offset="1" style="stop-color:rgb(50.980392%,4.313725%,100%);stop-opacity:0;"/>
</radialGradient>
</defs>
<g id="surface1">
<path style=" stroke:none;fill-rule:nonzero;fill:url(#radial0);" d="M 12.003906 0 C 6.992188 0 5.527344 0.00390625 5.242188 0.0273438 C 4.214844 0.113281 3.574219 0.277344 2.878906 0.625 C 2.34375 0.890625 1.917969 1.199219 1.5 1.632812 C 0.738281 2.421875 0.277344 3.394531 0.109375 4.550781 C 0.0273438 5.113281 0.00390625 5.226562 0 8.09375 C 0 9.050781 0 10.308594 0 11.996094 C 0 17.003906 0.0078125 18.464844 0.03125 18.75 C 0.113281 19.75 0.269531 20.382812 0.601562 21.070312 C 1.238281 22.386719 2.449219 23.378906 3.878906 23.746094 C 4.375 23.875 4.917969 23.945312 5.621094 23.976562 C 5.917969 23.992188 8.949219 24 11.976562 24 C 15.007812 24 18.039062 23.996094 18.328125 23.980469 C 19.140625 23.941406 19.613281 23.878906 20.136719 23.746094 C 21.574219 23.375 22.761719 22.398438 23.410156 21.0625 C 23.738281 20.390625 23.902344 19.738281 23.976562 18.789062 C 23.992188 18.582031 24 15.285156 24 11.992188 C 24 8.699219 23.992188 5.410156 23.976562 5.203125 C 23.902344 4.238281 23.734375 3.589844 23.398438 2.90625 C 23.125 2.34375 22.816406 1.925781 22.371094 1.496094 C 21.578125 0.738281 20.605469 0.277344 19.449219 0.109375 C 18.890625 0.0273438 18.777344 0.00390625 15.910156 0 Z M 12.003906 0 "/>
<path style=" stroke:none;fill-rule:nonzero;fill:url(#radial1);" d="M 12.003906 0 C 6.992188 0 5.527344 0.00390625 5.242188 0.0273438 C 4.214844 0.113281 3.574219 0.277344 2.878906 0.625 C 2.34375 0.890625 1.917969 1.199219 1.5 1.632812 C 0.738281 2.421875 0.277344 3.394531 0.109375 4.550781 C 0.0273438 5.113281 0.00390625 5.226562 0 8.09375 C 0 9.050781 0 10.308594 0 11.996094 C 0 17.003906 0.0078125 18.464844 0.03125 18.75 C 0.113281 19.75 0.269531 20.382812 0.601562 21.070312 C 1.238281 22.386719 2.449219 23.378906 3.878906 23.746094 C 4.375 23.875 4.917969 23.945312 5.621094 23.976562 C 5.917969 23.992188 8.949219 24 11.976562 24 C 15.007812 24 18.039062 23.996094 18.328125 23.980469 C 19.140625 23.941406 19.613281 23.878906 20.136719 23.746094 C 21.574219 23.375 22.761719 22.398438 23.410156 21.0625 C 23.738281 20.390625 23.902344 19.738281 23.976562 18.789062 C 23.992188 18.582031 24 15.285156 24 11.992188 C 24 8.699219 23.992188 5.410156 23.976562 5.203125 C 23.902344 4.238281 23.734375 3.589844 23.398438 2.90625 C 23.125 2.34375 22.816406 1.925781 22.371094 1.496094 C 21.578125 0.738281 20.605469 0.277344 19.449219 0.109375 C 18.890625 0.0273438 18.777344 0.00390625 15.910156 0 Z M 12.003906 0 "/>
<path style=" stroke:none;fill-rule:nonzero;fill:url(#radial2);" d="M 12.003906 0 C 6.992188 0 5.527344 0.00390625 5.242188 0.0273438 C 4.214844 0.113281 3.574219 0.277344 2.878906 0.625 C 2.34375 0.890625 1.917969 1.199219 1.5 1.632812 C 0.738281 2.421875 0.277344 3.394531 0.109375 4.550781 C 0.0273438 5.113281 0.00390625 5.226562 0 8.09375 C 0 9.050781 0 10.308594 0 11.996094 C 0 17.003906 0.0078125 18.464844 0.03125 18.75 C 0.113281 19.75 0.269531 20.382812 0.601562 21.070312 C 1.238281 22.386719 2.449219 23.378906 3.878906 23.746094 C 4.375 23.875 4.917969 23.945312 5.621094 23.976562 C 5.917969 23.992188 8.949219 24 11.976562 24 C 15.007812 24 18.039062 23.996094 18.328125 23.980469 C 19.140625 23.941406 19.613281 23.878906 20.136719 23.746094 C 21.574219 23.375 22.761719 22.398438 23.410156 21.0625 C 23.738281 20.390625 23.902344 19.738281 23.976562 18.789062 C 23.992188 18.582031 24 15.285156 24 11.992188 C 24 8.699219 23.992188 5.410156 23.976562 5.203125 C 23.902344 4.238281 23.734375 3.589844 23.398438 2.90625 C 23.125 2.34375 22.816406 1.925781 22.371094 1.496094 C 21.578125 0.738281 20.605469 0.277344 19.449219 0.109375 C 18.890625 0.0273438 18.777344 0.00390625 15.910156 0 Z M 12.003906 0 "/>
<path style=" stroke:none;fill-rule:nonzero;fill:url(#radial3);" d="M 12.003906 0 C 6.992188 0 5.527344 0.00390625 5.242188 0.0273438 C 4.214844 0.113281 3.574219 0.277344 2.878906 0.625 C 2.34375 0.890625 1.917969 1.199219 1.5 1.632812 C 0.738281 2.421875 0.277344 3.394531 0.109375 4.550781 C 0.0273438 5.113281 0.00390625 5.226562 0 8.09375 C 0 9.050781 0 10.308594 0 11.996094 C 0 17.003906 0.0078125 18.464844 0.03125 18.75 C 0.113281 19.75 0.269531 20.382812 0.601562 21.070312 C 1.238281 22.386719 2.449219 23.378906 3.878906 23.746094 C 4.375 23.875 4.917969 23.945312 5.621094 23.976562 C 5.917969 23.992188 8.949219 24 11.976562 24 C 15.007812 24 18.039062 23.996094 18.328125 23.980469 C 19.140625 23.941406 19.613281 23.878906 20.136719 23.746094 C 21.574219 23.375 22.761719 22.398438 23.410156 21.0625 C 23.738281 20.390625 23.902344 19.738281 23.976562 18.789062 C 23.992188 18.582031 24 15.285156 24 11.992188 C 24 8.699219 23.992188 5.410156 23.976562 5.203125 C 23.902344 4.238281 23.734375 3.589844 23.398438 2.90625 C 23.125 2.34375 22.816406 1.925781 22.371094 1.496094 C 21.578125 0.738281 20.605469 0.277344 19.449219 0.109375 C 18.890625 0.0273438 18.777344 0.00390625 15.910156 0 Z M 12.003906 0 "/>
<path style=" stroke:none;fill-rule:nonzero;fill:rgb(100%,100%,100%);fill-opacity:1;" d="M 12.003906 3.082031 C 9.582031 3.082031 9.277344 3.09375 8.324219 3.136719 C 7.375 3.179688 6.726562 3.328125 6.160156 3.550781 C 5.574219 3.777344 5.074219 4.082031 4.578125 4.578125 C 4.082031 5.074219 3.777344 5.570312 3.550781 6.15625 C 3.328125 6.722656 3.175781 7.371094 3.132812 8.320312 C 3.09375 9.273438 3.082031 9.578125 3.082031 12 C 3.082031 14.421875 3.089844 14.722656 3.132812 15.675781 C 3.179688 16.625 3.328125 17.269531 3.550781 17.839844 C 3.777344 18.425781 4.082031 18.921875 4.578125 19.417969 C 5.074219 19.914062 5.570312 20.21875 6.160156 20.445312 C 6.726562 20.667969 7.375 20.816406 8.324219 20.859375 C 9.277344 20.90625 9.582031 20.914062 12.003906 20.914062 C 14.425781 20.914062 14.730469 20.90625 15.683594 20.859375 C 16.632812 20.816406 17.28125 20.667969 17.847656 20.445312 C 18.4375 20.21875 18.933594 19.914062 19.429688 19.417969 C 19.925781 18.921875 20.230469 18.425781 20.457031 17.839844 C 20.679688 17.269531 20.828125 16.625 20.875 15.675781 C 20.917969 14.722656 20.925781 14.421875 20.925781 12 C 20.925781 9.578125 20.917969 9.273438 20.875 8.320312 C 20.828125 7.371094 20.679688 6.722656 20.457031 6.15625 C 20.230469 5.570312 19.925781 5.074219 19.429688 4.578125 C 18.933594 4.082031 18.4375 3.777344 17.847656 3.550781 C 17.28125 3.328125 16.632812 3.179688 15.679688 3.136719 C 14.730469 3.09375 14.425781 3.082031 12.003906 3.082031 Z M 11.203125 4.6875 C 11.441406 4.6875 11.707031 4.6875 12.003906 4.6875 C 14.386719 4.6875 14.667969 4.695312 15.609375 4.738281 C 16.480469 4.78125 16.953125 4.925781 17.265625 5.046875 C 17.683594 5.207031 17.980469 5.402344 18.292969 5.714844 C 18.605469 6.027344 18.796875 6.324219 18.960938 6.738281 C 19.082031 7.054688 19.226562 7.523438 19.269531 8.394531 C 19.3125 9.335938 19.320312 9.617188 19.320312 11.996094 C 19.320312 14.375 19.3125 14.660156 19.269531 15.597656 C 19.226562 16.46875 19.082031 16.941406 18.960938 17.253906 C 18.800781 17.667969 18.605469 17.964844 18.292969 18.277344 C 17.980469 18.589844 17.683594 18.78125 17.265625 18.945312 C 16.953125 19.066406 16.480469 19.210938 15.609375 19.253906 C 14.671875 19.292969 14.386719 19.304688 12.003906 19.304688 C 9.621094 19.304688 9.339844 19.292969 8.398438 19.253906 C 7.527344 19.210938 7.058594 19.066406 6.742188 18.945312 C 6.324219 18.78125 6.027344 18.589844 5.714844 18.277344 C 5.402344 17.964844 5.210938 17.667969 5.046875 17.253906 C 4.925781 16.9375 4.78125 16.46875 4.742188 15.597656 C 4.699219 14.65625 4.691406 14.375 4.691406 11.992188 C 4.691406 9.613281 4.699219 9.332031 4.742188 8.390625 C 4.78125 7.523438 4.925781 7.050781 5.046875 6.738281 C 5.210938 6.320312 5.402344 6.023438 5.714844 5.710938 C 6.027344 5.398438 6.324219 5.207031 6.742188 5.042969 C 7.058594 4.921875 7.527344 4.777344 8.398438 4.738281 C 9.222656 4.699219 9.542969 4.6875 11.203125 4.6875 Z M 16.769531 6.167969 C 16.175781 6.167969 15.699219 6.648438 15.699219 7.238281 C 15.699219 7.828125 16.175781 8.308594 16.769531 8.308594 C 17.359375 8.308594 17.839844 7.828125 17.839844 7.238281 C 17.839844 6.648438 17.359375 6.167969 16.769531 6.167969 Z M 12.003906 7.417969 C 9.472656 7.417969 7.421875 9.46875 7.421875 12 C 7.421875 14.527344 9.472656 16.578125 12.003906 16.578125 C 14.535156 16.578125 16.585938 14.527344 16.585938 12 C 16.585938 9.46875 14.535156 7.417969 12.003906 7.417969 Z M 12.003906 9.027344 C 13.648438 9.027344 14.980469 10.355469 14.980469 12 C 14.980469 13.640625 13.648438 14.96875 12.003906 14.96875 C 10.363281 14.96875 9.03125 13.640625 9.03125 12 C 9.03125 10.355469 10.363281 9.027344 12.003906 9.027344 Z M 12.003906 9.027344 "/>
</g>
</svg>
